<svg width="41" height="40" viewBox="0 0 41 40" fill="none" xmlns="http://www.w3.org/2000/svg">
<path d="M27.1288 3.5606C27.0488 4.0606 27.0088 4.5606 27.0088 5.0606C27.0088 9.5606 30.6488 13.1986 35.1288 13.1986C35.6288 13.1986 36.1088 13.1406 36.6088 13.0606V29.1986C36.6088 35.9806 32.6088 40.0006 25.8088 40.0006H11.0308C4.22876 40.0006 0.22876 35.9806 0.22876 29.1986V14.4006C0.22876 7.6006 4.22876 3.5606 11.0308 3.5606H27.1288ZM27.5308 15.7206C26.9888 15.6606 26.4508 15.9006 26.1288 16.3406L21.2908 22.6006L15.7488 18.2406C15.4088 17.9806 15.0088 17.8786 14.6088 17.9206C14.2108 17.9806 13.8508 18.1986 13.6088 18.5186L7.69076 26.2206L7.56876 26.4006C7.22876 27.0386 7.38876 27.8586 7.98876 28.3006C8.26876 28.4806 8.56876 28.6006 8.90876 28.6006C9.37076 28.6206 9.80876 28.3786 10.0888 28.0006L15.1088 21.5386L20.8088 25.8206L20.9888 25.9386C21.6288 26.2786 22.4288 26.1206 22.8888 25.5186L28.6688 18.0606L28.5888 18.1006C28.9088 17.6606 28.9688 17.1006 28.7488 16.6006C28.5308 16.1006 28.0488 15.7606 27.5308 15.7206ZM35.409 0C38.069 0 40.229 2.16 40.229 4.82C40.229 7.48 38.069 9.64 35.409 9.64C32.749 9.64 30.589 7.48 30.589 4.82C30.589 2.16 32.749 0 35.409 0Z" fill="#F0899C"/>
</svg>
