<svg width="49" height="48" viewBox="0 0 49 48" fill="none" xmlns="http://www.w3.org/2000/svg">
<path d="M33.5681 4.00098C40.3701 4.00098 44.2101 7.85898 44.2301 14.661V33.341C44.2301 40.141 40.3701 44.001 33.5681 44.001H14.8901C8.0881 44.001 4.2301 40.141 4.2301 33.341V14.661C4.2301 7.85898 8.0881 4.00098 14.8901 4.00098H33.5681ZM25.2301 12.261C24.6681 11.921 23.9881 11.921 23.4501 12.261C22.9081 12.599 22.6101 13.221 22.6681 13.841V34.221C22.7701 35.081 23.4881 35.721 24.3281 35.721C25.1901 35.721 25.9081 35.081 25.9881 34.221V13.841C26.0681 13.221 25.7701 12.599 25.2301 12.261ZM15.8901 18.821C15.3501 18.481 14.6681 18.481 14.1301 18.821C13.5881 19.161 13.2901 19.779 13.3501 20.401V34.221C13.4281 35.081 14.1481 35.721 15.0081 35.721C15.8701 35.721 16.5881 35.081 16.6681 34.221V20.401C16.7301 19.779 16.4281 19.161 15.8901 18.821ZM34.4081 26.081C33.8701 25.741 33.1901 25.741 32.6301 26.081C32.0881 26.421 31.7901 27.019 31.8701 27.661V34.221C31.9501 35.081 32.6681 35.721 33.5301 35.721C34.3701 35.721 35.0881 35.081 35.1901 34.221V27.661C35.2481 27.019 34.9501 26.421 34.4081 26.081Z" fill="#F0899C"/>
</svg>
