<svg width="65" height="65" viewBox="0 0 65 65" fill="none" xmlns="http://www.w3.org/2000/svg">
<circle opacity="0.1" cx="32.5361" cy="32.4463" r="32" fill="#F0899C"/>
<g clip-path="url(#clip0_46_1372)">
<path d="M49.9612 29.1771C49.3719 28.6639 48.4817 28.6621 47.8904 29.173L42.8325 33.5432C42.752 33.4047 42.6534 33.2755 42.5371 33.1592C41.8547 32.4768 40.7784 32.4249 40.0335 33.0384L35.654 36.645C34.5781 37.5311 33.961 38.8386 33.961 40.2324V43.351C33.6786 43.5964 33.499 43.9571 33.499 44.3597V49.4737C33.499 49.7645 33.7348 50.0003 34.0257 50.0003C34.3165 50.0003 34.5523 49.7645 34.5523 49.4737V44.3597C34.5523 44.2031 34.6797 44.0758 34.8362 44.0758H41.2672C41.4237 44.0758 41.5511 44.2031 41.5511 44.3597V49.4737C41.5511 49.7645 41.7869 50.0003 42.0777 50.0003C42.3686 50.0003 42.6044 49.7645 42.6044 49.4737V44.3597C42.6044 43.8485 42.3158 43.4038 41.8932 43.1789V40.8242L43.0934 40.3773C44.1035 40.0013 44.9494 39.3258 45.5396 38.4239L50.2454 31.2339C50.6755 30.5769 50.5532 29.6927 49.9612 29.1771ZM49.3642 30.657L44.6585 37.847C44.1921 38.5595 43.5239 39.0931 42.726 39.3902L40.632 40.1699C40.3594 40.2714 40.2207 40.5747 40.3222 40.8473C40.4012 41.0592 40.6021 41.1903 40.8158 41.1903C40.8239 41.1903 40.832 41.1896 40.8401 41.1892V43.0225H35.0143V40.2325C35.0143 39.1546 35.4915 38.1433 36.3236 37.4581L40.7031 33.8515C41.0272 33.5847 41.4955 33.6072 41.7923 33.9041C42.1086 34.2204 42.1086 34.735 41.7923 35.0513L40.0645 36.7791C39.8589 36.9847 39.8589 37.3182 40.0645 37.5238C40.2702 37.7295 40.6037 37.7295 40.8093 37.5238L42.5371 35.796C42.8281 35.505 43.0106 35.1348 43.0655 34.7339L48.579 29.97C48.7762 29.7997 49.073 29.8003 49.2694 29.9714C49.4668 30.1433 49.5076 30.4381 49.3642 30.657Z" fill="#F0899C"/>
<path d="M32.0397 43.3511V40.2325C32.0397 38.8573 31.4353 37.5607 30.3814 36.6752C30.1587 36.488 29.8265 36.5169 29.6394 36.7395C29.4523 36.9622 29.4811 37.2944 29.7038 37.4815C30.5189 38.1664 30.9863 39.1691 30.9863 40.2324V43.0224H25.1606V41.1892C25.1687 41.1895 25.1768 41.1902 25.1849 41.1902C25.3986 41.1902 25.5996 41.0592 25.6786 40.8472C25.78 40.5746 25.6413 40.2713 25.3688 40.1699L23.2748 39.3902C22.4768 39.0931 21.8085 38.5594 21.3423 37.847L16.6365 30.6572C16.4931 30.4382 16.5339 30.1434 16.7313 29.9714C16.9278 29.8003 17.2245 29.7997 17.4217 29.97L22.9363 34.7348C22.99 35.1233 23.1656 35.4979 23.4637 35.7959L25.1915 37.5237C25.2943 37.6265 25.4291 37.678 25.5638 37.678C25.6986 37.678 25.8334 37.6266 25.9362 37.5237C26.1419 37.3181 26.1419 36.9846 25.9362 36.779L24.2084 35.0512C23.8921 34.7349 23.8921 34.2203 24.2084 33.904C24.5053 33.6072 24.9736 33.5846 25.2976 33.8515L27.9378 36.0256C28.1623 36.2106 28.4942 36.1784 28.6791 35.9539C28.864 35.7294 28.8319 35.3975 28.6073 35.2126L25.9672 33.0384C25.2221 32.4249 24.1458 32.4769 23.4636 33.1592C23.3462 33.2766 23.248 33.4061 23.1685 33.5435L18.1102 29.1731C17.5189 28.6621 16.6286 28.6639 16.0395 29.1771C15.4475 29.6927 15.3252 30.5769 15.7552 31.234L20.461 38.4239C21.0512 39.3258 21.8971 40.0013 22.9072 40.3774L24.1074 40.8242V43.1789C23.6848 43.4039 23.3962 43.8485 23.3962 44.3597V49.4737C23.3962 49.7646 23.632 50.0003 23.9229 50.0003C24.2137 50.0003 24.4495 49.7646 24.4495 49.4737V44.3597C24.4495 44.2032 24.5768 44.0758 24.7334 44.0758H31.1644C31.3209 44.0758 31.4483 44.2032 31.4483 44.3597V49.4737C31.4483 49.7646 31.6841 50.0003 31.9749 50.0003C32.2658 50.0003 32.5016 49.7646 32.5016 49.4737V44.3597C32.5016 43.9572 32.322 43.5965 32.0397 43.3511Z" fill="#F0899C"/>
<path d="M24.1222 30.6838C28.7219 30.6838 32.4641 26.9417 32.4641 22.3419C32.4641 17.7422 28.7219 14 24.1222 14C19.5225 14 15.7803 17.7422 15.7803 22.3419C15.7803 26.9417 19.5224 30.6838 24.1222 30.6838ZM24.1222 15.0533C28.1412 15.0533 31.4108 18.3229 31.4108 22.3419C31.4108 26.3609 28.1412 29.6305 24.1222 29.6305C20.1032 29.6305 16.8336 26.3609 16.8336 22.3419C16.8336 18.3229 20.1032 15.0533 24.1222 15.0533Z" fill="#F0899C"/>
<path d="M22.261 25.6501C22.5558 25.9294 22.9416 26.0832 23.3477 26.0832C23.7763 26.0832 24.1775 25.9144 24.4774 25.6079L25.596 24.464C25.7993 24.2561 25.7956 23.9227 25.5876 23.7193C25.3797 23.5159 25.0463 23.5197 24.8429 23.7276L23.7244 24.8714C23.6244 24.9737 23.4905 25.0299 23.3477 25.0299C23.2124 25.0299 23.0838 24.9787 22.9855 24.8855L21.4056 23.3883L22.1302 22.6238L22.7436 23.2051C23.069 23.5135 23.5888 23.5036 23.9022 23.1832L26.9801 20.0361L27.7331 20.7725L26.4123 22.1231C26.2089 22.331 26.2126 22.6644 26.4206 22.8678C26.6285 23.0712 26.9619 23.0674 27.1654 22.8595L28.6451 21.3464C28.7994 21.1886 28.883 20.9803 28.8805 20.7596C28.8781 20.539 28.7898 20.3326 28.632 20.1784L27.554 19.1242C27.3962 18.9699 27.1881 18.8861 26.9672 18.8887C26.7466 18.8912 26.5401 18.9795 26.3859 19.1372L23.3057 22.2868L22.6898 21.7031C22.5297 21.5512 22.32 21.4707 22.0994 21.4769C21.8789 21.4827 21.6738 21.5742 21.5221 21.7343L20.4848 22.8288C20.1716 23.1594 20.1856 23.6832 20.5162 23.9966L22.261 25.6501Z" fill="#F0899C"/>
<path d="M41.878 30.6838C43.8355 30.6838 45.7385 29.9917 47.2364 28.7349C47.4592 28.5479 47.4883 28.2158 47.3014 27.993C47.1145 27.7702 46.7823 27.7412 46.5595 27.928C45.2509 29.026 43.5884 29.6306 41.8781 29.6306C37.8591 29.6306 34.5895 26.3609 34.5895 22.342C34.5895 18.323 37.8591 15.0533 41.878 15.0533C45.897 15.0533 49.1667 18.3229 49.1667 22.3419C49.1667 23.7796 48.7483 25.1705 47.9568 26.3641C47.7961 26.6065 47.8622 26.9333 48.1046 27.0941C48.3469 27.2548 48.6738 27.1886 48.8346 26.9463C49.7409 25.5795 50.22 23.9873 50.22 22.342C50.22 17.7422 46.4778 14 41.878 14C37.2783 14 33.5361 17.7422 33.5361 22.3419C33.5361 26.9417 37.2783 30.6838 41.878 30.6838Z" fill="#F0899C"/>
<path d="M46.1616 19.3678L44.9537 18.1308C44.8001 17.9734 44.5944 17.8854 44.3746 17.8828C44.1547 17.88 43.9471 17.9632 43.7897 18.1169L41.8781 19.9836L39.9655 18.116C39.8082 17.9623 39.6007 17.8788 39.3806 17.8819C39.1608 17.8845 38.9551 17.9726 38.8015 18.1299L37.5936 19.3669C37.44 19.5242 37.3568 19.732 37.3594 19.9518C37.3621 20.1716 37.4502 20.3773 37.6074 20.5309L39.4625 22.3424L37.6074 24.1538C37.4501 24.3074 37.362 24.513 37.3594 24.7329C37.3568 24.9527 37.44 25.1604 37.5935 25.3177L38.8014 26.5547C38.9551 26.7121 39.1608 26.8001 39.3806 26.8027C39.384 26.8027 39.3874 26.8028 39.3907 26.8028C39.6068 26.8028 39.8106 26.7199 39.9655 26.5686L41.8781 24.701L43.7898 26.5677C43.9471 26.7213 44.1558 26.803 44.3746 26.8017C44.5945 26.7991 44.8002 26.711 44.9537 26.5537L46.1616 25.3167C46.4787 24.992 46.4725 24.4699 46.1478 24.1527L44.2937 22.3421L46.1479 20.5316C46.4725 20.2146 46.4787 19.6924 46.1616 19.3678ZM43.1719 21.9655C43.0705 22.0646 43.0132 22.2004 43.0132 22.3423C43.0132 22.4841 43.0705 22.62 43.1719 22.7191L45.2472 24.7455L44.3609 25.6532L42.246 23.5881C42.0414 23.3883 41.7147 23.3883 41.5102 23.5881L39.3944 25.6541L38.5081 24.7465L40.5843 22.7191C40.6858 22.6199 40.743 22.4841 40.743 22.3423C40.743 22.2004 40.6858 22.0646 40.5843 21.9655L38.5081 19.9381L39.3944 19.0304L41.5102 21.0965C41.7148 21.2962 42.0414 21.2962 42.246 21.0965L44.3609 19.0313L45.2472 19.939L43.1719 21.9655Z" fill="#F0899C"/>
</g>
<defs>
<clipPath id="clip0_46_1372">
<rect width="36" height="36" fill="white" transform="translate(15 14)"/>
</clipPath>
</defs>
</svg>
