<svg width="41" height="40" viewBox="0 0 41 40" fill="none" xmlns="http://www.w3.org/2000/svg">
<path d="M14.7895 27.6483L24.4986 27.678C25.104 27.6801 25.5941 28.1871 25.5941 28.8086V34.2707C25.5941 34.8943 25.2399 35.4585 24.688 35.7194L15.8747 39.8579C15.6687 39.9533 15.4505 40 15.2322 40C14.9418 40 14.6515 39.9152 14.3982 39.7476C13.9555 39.4549 13.6878 38.95 13.6878 38.4091V28.7789C13.6878 28.1531 14.182 27.6462 14.7895 27.6483ZM35.9729 0C38.3245 0 40.2292 1.96211 40.2292 4.38451V7.44751C40.2292 8.62265 39.77 9.75113 38.9546 10.5742L25.9446 23.734C25.7201 23.9631 25.4153 24.0904 25.1003 24.0883L14.2071 24.0543C13.8756 24.0543 13.5605 23.9122 13.334 23.664L1.37828 10.5148C0.639029 9.70234 0.229248 8.62902 0.229248 7.51539V4.38663C0.229248 1.96423 2.13401 0 4.48562 0H35.9729Z" fill="#F0899C"/>
</svg>
