<svg width="41" height="40" viewBox="0 0 41 40" fill="none" xmlns="http://www.w3.org/2000/svg">
<path d="M14.1414 5.919C15.1217 5.73552 16.1045 6.22496 16.5322 7.10958C16.6386 7.2701 16.7238 7.44327 16.7857 7.62491C17.0574 11.8186 17.3472 15.9412 17.6189 20.0638C17.6127 20.4923 17.68 20.9188 17.8181 21.3254C18.1431 22.1255 18.952 22.6331 19.8286 22.5871L33.1409 21.7342L33.2314 21.7697L33.4744 21.7872C33.9556 21.8488 34.4043 22.0684 34.745 22.4141C35.1424 22.8173 35.3602 23.359 35.3508 23.9198C34.826 31.564 29.2216 37.951 21.5948 39.5965C13.968 41.2419 6.1496 37.7509 2.40481 31.0278C1.30368 29.0914 0.607853 26.9588 0.358156 24.755C0.261311 24.102 0.218909 23.4423 0.231372 22.7826C0.256613 14.6541 6.0438 7.63813 14.1414 5.919ZM22.0563 0.0016498C31.1979 0.27531 38.838 6.9116 40.2227 15.7813C40.2314 15.8342 40.2314 15.8882 40.2227 15.9412L40.2202 16.1916C40.1901 16.5226 40.0542 16.8383 39.8285 17.0917C39.5464 17.4085 39.1472 17.602 38.7194 17.6293L23.3604 18.6422L23.1074 18.6472C22.6881 18.6268 22.2861 18.4637 21.9729 18.1818C21.5971 17.8436 21.3841 17.3656 21.3862 16.8652L20.3538 1.77863V1.52986C20.3726 1.10555 20.5626 0.706006 20.882 0.419325C21.2014 0.132645 21.6239 -0.0176264 22.0563 0.0016498Z" fill="#F0899C"/>
</svg>
