<svg width="41" height="39" viewBox="0 0 41 39" fill="none" xmlns="http://www.w3.org/2000/svg">
<path d="M12.7888 0.00128589C14.0488 0.0396052 15.2688 0.259605 16.4508 0.661605H16.5688C16.6488 0.699605 16.7088 0.741605 16.7488 0.779605C17.1908 0.921605 17.6088 1.08161 18.0088 1.30161L18.7688 1.64161C19.0688 1.80161 19.4288 2.09961 19.6288 2.22161C19.8288 2.33961 20.0488 2.46161 20.2288 2.59961C22.4508 0.901605 25.1488 -0.0183948 27.9288 0.00128589C29.1908 0.00128589 30.4508 0.179605 31.6488 0.581605C39.0308 2.98161 41.6908 11.0816 39.4688 18.1616C38.2088 21.7796 36.1488 25.0816 33.4508 27.7796C29.5888 31.5196 25.3508 34.8396 20.7888 37.6996L20.2888 38.0016L19.7688 37.6796C15.1908 34.8396 10.9288 31.5196 7.03079 27.7596C4.35079 25.0616 2.28879 21.7796 1.00879 18.1616C-1.25121 11.0816 1.40879 2.98161 8.87079 0.539605C9.45079 0.339605 10.0488 0.199605 10.6488 0.121605H10.8888C11.4508 0.0396052 12.0088 0.00128589 12.5688 0.00128589H12.7888ZM30.6088 6.32161C29.7888 6.03961 28.8888 6.48161 28.5888 7.32161C28.3088 8.1616 28.7488 9.0816 29.5888 9.37961C30.8708 9.8596 31.7288 11.1216 31.7288 12.5196V12.5816C31.6908 13.0396 31.8288 13.4816 32.1088 13.8216C32.3888 14.1616 32.8088 14.3596 33.2488 14.4016C34.0688 14.3796 34.7688 13.7216 34.8288 12.8796V12.6416C34.8888 9.8396 33.1908 7.30161 30.6088 6.32161Z" fill="#F0899C"/>
</svg>
