<svg width="65" height="65" viewBox="0 0 65 65" fill="none" xmlns="http://www.w3.org/2000/svg">
<circle opacity="0.1" cx="32.5361" cy="32.4463" r="32" fill="#F0899C"/>
<g clip-path="url(#clip0_46_1335)">
<path d="M25.0683 29.3972L28.3555 25.4425C28.5417 25.2185 28.511 24.8861 28.287 24.6999C28.0631 24.5138 27.7305 24.5444 27.5443 24.7684L24.7266 28.1582L24.1108 27.1578C23.9581 26.9098 23.6334 26.8324 23.3852 26.9852C23.1372 27.1379 23.06 27.4628 23.2126 27.7107L24.2136 29.3365C24.4029 29.6438 24.8378 29.6745 25.0683 29.3972Z" fill="#F0899C"/>
<path d="M23.2127 34.6717L24.2136 36.2975C24.4028 36.6048 24.8377 36.6355 25.0682 36.3582L28.3554 32.4035C28.5416 32.1795 28.5109 31.847 28.2869 31.6609C28.063 31.4747 27.7304 31.5053 27.5443 31.7293L24.7266 35.1192L24.1107 34.1188C23.958 33.8708 23.6333 33.7934 23.3851 33.9462C23.1372 34.0989 23.0599 34.4238 23.2127 34.6717Z" fill="#F0899C"/>
<path d="M23.2127 41.6795L24.2136 43.3054C24.4028 43.6126 24.8377 43.6434 25.0682 43.366L28.3554 39.4113C28.5416 39.1873 28.5109 38.8549 28.2869 38.6687C28.063 38.4826 27.7304 38.5131 27.5443 38.7372L24.7266 42.127L24.1107 41.1266C23.958 40.8786 23.6333 40.8012 23.3851 40.954C23.1372 41.1068 23.0599 41.4316 23.2127 41.6795Z" fill="#F0899C"/>
<path d="M46.5352 43.7704C46.2439 43.7704 46.0078 44.0065 46.0078 44.2978V48.1365C46.0078 48.5823 45.6451 48.9451 45.1992 48.9451H20.8008C20.3549 48.9451 19.9922 48.5823 19.9922 48.1365V25.0254C19.9922 24.7341 19.7561 24.498 19.4648 24.498C19.1736 24.498 18.9375 24.7341 18.9375 25.0254V48.1365C18.9375 49.1639 19.7734 49.9998 20.8008 49.9998H45.1992C46.2266 49.9998 47.0625 49.1639 47.0625 48.1365V44.2978C47.0625 44.0065 46.8264 43.7704 46.5352 43.7704Z" fill="#F0899C"/>
<path d="M45.1992 18.0634H42.6196V15.8844C42.6196 14.8454 41.7743 14 40.7352 14C39.6961 14 38.8508 14.8453 38.8508 15.8844V18.0634H34.8844V15.8844C34.8844 14.8453 34.039 14 33 14C31.961 14 31.1156 14.8453 31.1156 15.8844V18.0634H27.1491V15.8844C27.1491 14.8454 26.3038 14 25.2647 14C24.2257 14 23.3803 14.8453 23.3803 15.8844V18.0634H20.8008C19.7734 18.0634 18.9375 18.8993 18.9375 19.9267V22.5647C18.9375 22.856 19.1736 23.092 19.4648 23.092C19.7561 23.092 19.9922 22.856 19.9922 22.5647V19.9267C19.9922 19.4809 20.3549 19.1181 20.8008 19.1181H23.3803V19.9555C23.3803 20.9945 24.2256 21.8398 25.2647 21.8398C26.3038 21.8398 27.1491 20.9945 27.1491 19.9555V19.1181H31.1156V19.9555C31.1156 20.9945 31.9609 21.8398 33 21.8398C34.0391 21.8398 34.8844 20.9945 34.8844 19.9555V19.1181H38.8509V19.9555C38.8509 20.9945 39.6962 21.8398 40.7353 21.8398C41.7743 21.8398 42.6197 20.9945 42.6197 19.9555V19.1181H45.1992C45.6451 19.1181 46.0078 19.4809 46.0078 19.9267V41.8371C46.0078 42.1284 46.2439 42.3644 46.5352 42.3644C46.8264 42.3644 47.0625 42.1284 47.0625 41.8371V19.9267C47.0625 18.8993 46.2266 18.0634 45.1992 18.0634ZM26.0945 19.9555C26.0945 20.413 25.7223 20.7852 25.2648 20.7852C24.8073 20.7852 24.4351 20.413 24.4351 19.9555C24.4351 18.8314 24.4351 16.2362 24.4351 15.8844C24.4351 15.4269 24.8073 15.0547 25.2648 15.0547C25.7223 15.0547 26.0945 15.4269 26.0945 15.8844V19.9555ZM33.8297 19.9555C33.8297 20.413 33.4575 20.7852 33 20.7852C32.5425 20.7852 32.1703 20.413 32.1703 19.9555C32.1703 18.8314 32.1703 16.2362 32.1703 15.8844C32.1703 15.4269 32.5425 15.0547 33 15.0547C33.4575 15.0547 33.8297 15.4269 33.8297 15.8844V19.9555ZM41.565 19.9555C41.565 20.413 41.1928 20.7852 40.7353 20.7852C40.2778 20.7852 39.9056 20.413 39.9056 19.9555C39.9056 18.8314 39.9056 16.2362 39.9056 15.8844C39.9056 15.4269 40.2778 15.0547 40.7353 15.0547C41.1927 15.0547 41.565 15.4269 41.565 15.8844V19.9555Z" fill="#F0899C"/>
<path d="M30.5908 29.833H41.7002C42.6113 29.833 43.3525 29.0918 43.3525 28.1807C43.3525 27.2696 42.6113 26.5283 41.7002 26.5283H30.5908C29.6797 26.5283 28.9385 27.2696 28.9385 28.1807C28.9385 29.0918 29.6797 29.833 30.5908 29.833ZM30.5908 27.583H41.7002C42.0298 27.583 42.2979 27.8511 42.2979 28.1807C42.2979 28.5102 42.0298 28.7783 41.7002 28.7783H30.5908C30.2613 28.7783 29.9932 28.5102 29.9932 28.1807C29.9932 27.8511 30.2613 27.583 30.5908 27.583Z" fill="#F0899C"/>
<path d="M30.5908 36.8096H41.7002C42.6113 36.8096 43.3525 36.0683 43.3525 35.1572C43.3525 34.2461 42.6113 33.5049 41.7002 33.5049H30.5908C29.6797 33.5049 28.9385 34.2461 28.9385 35.1572C28.9385 36.0683 29.6797 36.8096 30.5908 36.8096ZM30.5908 34.5596H41.7002C42.0298 34.5596 42.2979 34.8277 42.2979 35.1572C42.2979 35.4868 42.0298 35.7549 41.7002 35.7549H30.5908C30.2613 35.7549 29.9932 35.4868 29.9932 35.1572C29.9932 34.8277 30.2613 34.5596 30.5908 34.5596Z" fill="#F0899C"/>
<path d="M30.5908 43.7852H41.7002C42.6113 43.7852 43.3525 43.0439 43.3525 42.1328C43.3525 41.2217 42.6113 40.4805 41.7002 40.4805H30.5908C29.6797 40.4805 28.9385 41.2217 28.9385 42.1328C28.9385 43.0439 29.6797 43.7852 30.5908 43.7852ZM30.5908 41.5352H41.7002C42.0298 41.5352 42.2979 41.8033 42.2979 42.1328C42.2979 42.4624 42.0298 42.7305 41.7002 42.7305H30.5908C30.2613 42.7305 29.9932 42.4624 29.9932 42.1328C29.9932 41.8033 30.2613 41.5352 30.5908 41.5352Z" fill="#F0899C"/>
</g>
<defs>
<clipPath id="clip0_46_1335">
<rect width="36" height="36" fill="white" transform="translate(15 14)"/>
</clipPath>
</defs>
</svg>
