<svg width="65" height="65" viewBox="0 0 65 65" fill="none" xmlns="http://www.w3.org/2000/svg">
<circle opacity="0.1" cx="32.5408" cy="32.4463" r="32" fill="#F0899C"/>
<path d="M39.0602 23.1861C38.0566 22.2812 36.8712 21.6011 35.5834 21.1915C34.2957 20.7818 32.9353 20.6521 31.5933 20.8108C29.5677 21.0421 27.6693 21.9152 26.1752 23.3023C24.6812 24.6895 23.6699 26.518 23.2891 28.5209C22.9083 30.5237 23.1779 32.5958 24.0586 34.4345C24.9393 36.2731 26.3849 37.782 28.1842 38.7406V44.3755C28.1845 44.6737 28.3032 44.9597 28.5141 45.1706C28.725 45.3815 29.011 45.5002 29.3092 45.5005H30.4342V46.6255C30.4345 46.9237 30.5532 47.2097 30.7641 47.4206C30.975 47.6315 31.261 47.7502 31.5592 47.7505H33.8092C34.1075 47.7502 34.3935 47.6315 34.6044 47.4206C34.8153 47.2097 34.9339 46.9237 34.9342 46.6255V45.5005H36.0592C36.3575 45.5002 36.6435 45.3815 36.8544 45.1706C37.0653 44.9597 37.1839 44.6737 37.1842 44.3755V38.7408C38.5419 38.0178 39.7048 36.9776 40.5743 35.7087C41.4437 34.4398 41.9939 32.9797 42.1781 31.4526C42.3622 29.9255 42.1749 28.3765 41.6321 26.9373C41.0893 25.4981 40.207 24.2112 39.0602 23.1861ZM36.0592 41.0005V42.1255H29.3092V41.0005H36.0592ZM33.8101 46.6255H31.5592V45.5005H33.8095L33.8101 46.6255ZM34.3717 44.3755H29.3092V43.2505H36.0592V44.3755H34.3717ZM36.3751 37.8911C36.2804 37.9372 36.2005 38.0091 36.1447 38.0984C36.0888 38.1878 36.0592 38.291 36.0592 38.3964V39.8755H33.2467V37.2959L34.7694 35.7731C34.8719 35.6671 34.9286 35.525 34.9273 35.3775C34.926 35.23 34.8669 35.0889 34.7626 34.9846C34.6583 34.8803 34.5172 34.8212 34.3697 34.8199C34.2222 34.8186 34.0801 34.8753 33.9741 34.9778L32.6842 36.2675L31.3944 34.9778C31.2883 34.8753 31.1463 34.8186 30.9988 34.8199C30.8513 34.8212 30.7102 34.8803 30.6059 34.9846C30.5016 35.0889 30.4425 35.23 30.4412 35.3775C30.4399 35.525 30.4966 35.6671 30.5991 35.7731L32.1217 37.2959V39.8755H29.3092V38.3964C29.3093 38.291 29.2797 38.1878 29.2238 38.0984C29.168 38.0091 29.0881 37.9372 28.9934 37.8911C27.3514 37.0936 26.0125 35.7848 25.1779 34.1613C24.3434 32.5378 24.0582 30.6873 24.3653 28.8879C24.6724 27.0885 25.5552 25.4373 26.8809 24.1825C28.2067 22.9277 29.9039 22.137 31.7175 21.9293C32.0423 21.893 32.3689 21.8747 32.6958 21.8746C34.7693 21.8684 36.7707 22.6348 38.3098 24.0242C39.3415 24.9463 40.1304 26.1083 40.6067 27.4074C41.083 28.7066 41.2321 30.1031 41.0409 31.4736C40.8497 32.844 40.324 34.1464 39.5103 35.2655C38.6966 36.3847 37.6198 37.2864 36.3751 37.8909V37.8911Z" fill="#F0899C"/>
<path d="M32.6842 19.625C32.8334 19.625 32.9765 19.5657 33.082 19.4602C33.1874 19.3548 33.2467 19.2117 33.2467 19.0625V16.8125C33.2467 16.6633 33.1874 16.5202 33.082 16.4148C32.9765 16.3093 32.8334 16.25 32.6842 16.25C32.535 16.25 32.3919 16.3093 32.2865 16.4148C32.181 16.5202 32.1217 16.6633 32.1217 16.8125V19.0625C32.1217 19.2117 32.181 19.3548 32.2865 19.4602C32.3919 19.5657 32.535 19.625 32.6842 19.625Z" fill="#F0899C"/>
<path d="M24.3315 22.7555C24.3834 22.8092 24.4455 22.852 24.5141 22.8815C24.5828 22.911 24.6566 22.9265 24.7312 22.9272C24.8059 22.9278 24.88 22.9136 24.9491 22.8853C25.0183 22.857 25.0811 22.8152 25.1339 22.7624C25.1867 22.7096 25.2285 22.6468 25.2567 22.5777C25.285 22.5085 25.2993 22.4345 25.2986 22.3598C25.298 22.2851 25.2824 22.2113 25.253 22.1427C25.2235 22.074 25.1806 22.012 25.1269 21.9601L23.5358 20.369C23.4839 20.3153 23.4219 20.2724 23.3532 20.2429C23.2846 20.2135 23.2108 20.1979 23.1361 20.1973C23.0614 20.1966 22.9874 20.2109 22.9182 20.2392C22.8491 20.2674 22.7863 20.3092 22.7335 20.362C22.6807 20.4148 22.6389 20.4776 22.6106 20.5468C22.5823 20.6159 22.5681 20.69 22.5687 20.7647C22.5694 20.8393 22.5849 20.9132 22.6144 20.9818C22.6439 21.0504 22.6867 21.1125 22.7405 21.1644L24.3315 22.7555Z" fill="#F0899C"/>
<path d="M21.4342 29.75H19.1842C19.035 29.75 18.8919 29.8093 18.7865 29.9148C18.681 30.0202 18.6217 30.1633 18.6217 30.3125C18.6217 30.4617 18.681 30.6048 18.7865 30.7102C18.8919 30.8157 19.035 30.875 19.1842 30.875H21.4342C21.5834 30.875 21.7265 30.8157 21.832 30.7102C21.9374 30.6048 21.9967 30.4617 21.9967 30.3125C21.9967 30.1633 21.9374 30.0202 21.832 29.9148C21.7265 29.8093 21.5834 29.75 21.4342 29.75Z" fill="#F0899C"/>
<path d="M24.3315 37.8698L22.7405 39.4609C22.6867 39.5128 22.6439 39.5749 22.6144 39.6435C22.5849 39.7121 22.5694 39.7859 22.5687 39.8606C22.5681 39.9353 22.5823 40.0094 22.6106 40.0785C22.6389 40.1476 22.6807 40.2104 22.7335 40.2632C22.7863 40.3161 22.8491 40.3578 22.9182 40.3861C22.9874 40.4144 23.0614 40.4286 23.1361 40.428C23.2108 40.4273 23.2846 40.4118 23.3532 40.3823C23.4219 40.3529 23.4839 40.31 23.5358 40.2563L25.1269 38.6652C25.2294 38.5591 25.2861 38.417 25.2848 38.2695C25.2835 38.122 25.2244 37.981 25.1201 37.8767C25.0158 37.7724 24.8747 37.7132 24.7272 37.7119C24.5797 37.7107 24.4376 37.7674 24.3315 37.8698Z" fill="#F0899C"/>
<path d="M41.8325 20.369L40.2414 21.9601C40.1877 22.012 40.1449 22.074 40.1154 22.1427C40.0859 22.2113 40.0704 22.2851 40.0697 22.3598C40.0691 22.4345 40.0833 22.5085 40.1116 22.5777C40.1399 22.6468 40.1816 22.7096 40.2345 22.7624C40.2873 22.8152 40.3501 22.857 40.4192 22.8853C40.4883 22.9136 40.5624 22.9278 40.6371 22.9272C40.7118 22.9265 40.7856 22.911 40.8542 22.8815C40.9228 22.852 40.9849 22.8092 41.0368 22.7555L42.6279 21.1644C42.6816 21.1125 42.7245 21.0504 42.7539 20.9818C42.7834 20.9132 42.7989 20.8393 42.7996 20.7647C42.8002 20.69 42.786 20.6159 42.7577 20.5468C42.7294 20.4776 42.6877 20.4148 42.6349 20.362C42.582 20.3092 42.5192 20.2674 42.4501 20.2392C42.381 20.2109 42.3069 20.1966 42.2322 20.1973C42.1575 20.1979 42.0837 20.2135 42.0151 20.2429C41.9465 20.2724 41.8844 20.3153 41.8325 20.369Z" fill="#F0899C"/>
<path d="M41.0368 37.8698C40.9307 37.7674 40.7886 37.7107 40.6411 37.7119C40.4936 37.7132 40.3525 37.7724 40.2482 37.8767C40.144 37.981 40.0848 38.122 40.0835 38.2695C40.0822 38.417 40.1389 38.5591 40.2414 38.6652L41.8325 40.2563C41.9386 40.3587 42.0807 40.4154 42.2281 40.4142C42.3756 40.4129 42.5167 40.3537 42.621 40.2494C42.7253 40.1451 42.7845 40.0041 42.7857 39.8566C42.787 39.7091 42.7303 39.567 42.6279 39.4609L41.0368 37.8698Z" fill="#F0899C"/>
<path d="M46.1842 29.75H43.9342C43.785 29.75 43.6419 29.8093 43.5365 29.9148C43.431 30.0202 43.3717 30.1633 43.3717 30.3125C43.3717 30.4617 43.431 30.6048 43.5365 30.7102C43.6419 30.8157 43.785 30.875 43.9342 30.875H46.1842C46.3334 30.875 46.4765 30.8157 46.582 30.7102C46.6874 30.6048 46.7467 30.4617 46.7467 30.3125C46.7467 30.1633 46.6874 30.0202 46.582 29.9148C46.4765 29.8093 46.3334 29.75 46.1842 29.75Z" fill="#F0899C"/>
</svg>
