<svg width="41" height="40" viewBox="0 0 41 40" fill="none" xmlns="http://www.w3.org/2000/svg">
<path d="M39.8491 21.6305C39.9931 21.7115 40.0219 21.8832 40.0277 21.9487L40.0291 21.9748L39.8691 32.3038C39.8691 36.4241 36.6767 39.784 32.6568 39.99L32.2653 40H8.17322C4.10243 40 0.782806 36.7688 0.579305 32.7001L0.569418 32.3038L0.429348 21.9748C0.429348 21.9748 0.429348 21.7317 0.609438 21.6305C0.769518 21.5292 0.969618 21.6507 0.989628 21.671C5.03165 24.3849 9.89408 26.1874 14.9966 26.9368C15.717 27.038 16.4374 26.5722 16.6375 25.8431C17.0502 24.2862 18.3246 23.2276 19.8838 23.1014L20.1992 23.0887H20.2593C21.9601 23.0887 23.3808 24.1824 23.821 25.8431C24.0211 26.5722 24.7415 27.038 25.4619 26.9368C30.5644 26.1874 35.4268 24.3849 39.4689 21.671C39.4689 21.671 39.5089 21.6507 39.5489 21.6305C39.6289 21.59 39.749 21.5697 39.8491 21.6305ZM20.2192 25.9849C19.4672 25.9849 18.8329 26.5635 18.7324 27.2995L18.7185 27.5039V30.1165C18.7185 30.9671 19.3988 31.6355 20.2192 31.6355C20.9896 31.6355 21.6087 31.0739 21.7065 30.3251L21.72 30.1165V27.5039C21.72 26.6735 21.0597 25.9849 20.2192 25.9849ZM22.8005 0C25.802 0 28.2633 2.2886 28.6435 5.22529H32.6054C36.8075 5.22529 40.2292 8.68856 40.2292 12.9417C40.2292 12.9417 40.1092 14.7422 40.0692 17.2495C40.0652 17.448 39.9691 17.6424 39.811 17.7599C38.8486 18.4708 37.9681 19.0581 37.8881 19.0986C34.5664 21.3265 30.7065 22.8941 26.5944 23.6738C26.3263 23.7265 26.0622 23.5867 25.9261 23.3477C24.7735 21.3508 22.6204 20.0505 20.2192 20.0505C17.834 20.0505 15.661 21.3366 14.4744 23.3356C14.3363 23.5705 14.0762 23.7062 13.81 23.6556C9.732 22.8738 5.87207 21.3082 2.57042 19.1189L0.649458 17.7822C0.489378 17.6809 0.389328 17.4986 0.389328 17.2961C0.329298 16.2632 0.229248 12.9417 0.229248 12.9417C0.229248 8.68856 3.65096 5.22529 7.85306 5.22529H11.795C12.1752 2.2886 14.6365 0 17.638 0H22.8005ZM22.8005 3.03796H17.638C16.2973 3.03796 15.1567 3.9696 14.8366 5.22529H25.6019C25.2818 3.9696 24.1412 3.03796 22.8005 3.03796Z" fill="#F0899C"/>
</svg>
